<svg xmlns="http://www.w3.org/2000/svg" width="760" height="380" font-family="Segoe UI, Helvetica, Arial, sans-serif">
<rect width="760" height="380" fill="white"/>
<text x="380.0" y="24" text-anchor="middle" font-size="15" font-weight="bold">Estimated time = cycles x logic depth (arb. units)</text>
<line x1="60" y1="44.0" x2="740" y2="44.0" stroke="#ddd"/>
<text x="54" y="48.0" text-anchor="end" font-size="11" fill="#555">1262451</text>
<line x1="60" y1="110.5" x2="740" y2="110.5" stroke="#ddd"/>
<text x="54" y="114.5" text-anchor="end" font-size="11" fill="#555">946838</text>
<line x1="60" y1="177.0" x2="740" y2="177.0" stroke="#ddd"/>
<text x="54" y="181.0" text-anchor="end" font-size="11" fill="#555">631225</text>
<line x1="60" y1="243.5" x2="740" y2="243.5" stroke="#ddd"/>
<text x="54" y="247.5" text-anchor="end" font-size="11" fill="#555">315612</text>
<line x1="60" y1="310.0" x2="740" y2="310.0" stroke="#ddd"/>
<text x="54" y="314.0" text-anchor="end" font-size="11" fill="#555">0</text>
<text x="16" y="177.0" font-size="12" fill="#333" transform="rotate(-90 16 177.0)" text-anchor="middle">cycles x depth</text>
<rect x="83.8" y="204.3" width="36.7" height="105.7" fill="#4C6EF5"/>
<text x="102.2" y="200.3" text-anchor="middle" font-size="10" fill="#333">501700</text>
<rect x="124.6" y="44.0" width="36.7" height="266.0" fill="#F59F00"/>
<text x="143.0" y="40.0" text-anchor="middle" font-size="10" fill="#333">1262451</text>
<rect x="165.4" y="242.4" width="36.7" height="67.6" fill="#2F9E44"/>
<text x="183.8" y="238.4" text-anchor="middle" font-size="10" fill="#333">320820</text>
<text x="145.0" y="326" text-anchor="middle" font-size="12" fill="#222">mac512</text>
<rect x="253.8" y="247.3" width="36.7" height="62.7" fill="#4C6EF5"/>
<text x="272.2" y="243.3" text-anchor="middle" font-size="10" fill="#333">297540</text>
<rect x="294.6" y="156.5" width="36.7" height="153.5" fill="#F59F00"/>
<text x="313.0" y="152.5" text-anchor="middle" font-size="10" fill="#333">728531</text>
<rect x="335.4" y="264.7" width="36.7" height="45.3" fill="#2F9E44"/>
<text x="353.8" y="260.7" text-anchor="middle" font-size="10" fill="#333">215220</text>
<text x="315.0" y="326" text-anchor="middle" font-size="12" fill="#222">sum512</text>
<rect x="423.8" y="272.3" width="36.7" height="37.7" fill="#4C6EF5"/>
<text x="442.2" y="268.3" text-anchor="middle" font-size="10" fill="#333">178872</text>
<rect x="464.6" y="217.7" width="36.7" height="92.3" fill="#F59F00"/>
<text x="483.0" y="213.7" text-anchor="middle" font-size="10" fill="#333">437999</text>
<rect x="505.4" y="284.1" width="36.7" height="25.9" fill="#2F9E44"/>
<text x="523.8" y="280.1" text-anchor="middle" font-size="10" fill="#333">123120</text>
<text x="485.0" y="326" text-anchor="middle" font-size="12" fill="#222">copy256</text>
<rect x="593.8" y="211.3" width="36.7" height="98.7" fill="#4C6EF5"/>
<text x="612.2" y="207.3" text-anchor="middle" font-size="10" fill="#333">468640</text>
<rect x="634.6" y="68.7" width="36.7" height="241.3" fill="#F59F00"/>
<text x="653.0" y="64.7" text-anchor="middle" font-size="10" fill="#333">1145230</text>
<rect x="675.4" y="238.7" width="36.7" height="71.3" fill="#2F9E44"/>
<text x="693.8" y="234.7" text-anchor="middle" font-size="10" fill="#333">338520</text>
<text x="655.0" y="326" text-anchor="middle" font-size="12" fill="#222">sort32</text>
<rect x="60" y="341" width="12" height="12" fill="#4C6EF5"/>
<text x="76" y="352" font-size="12" fill="#222">single (cycles x depth)</text>
<rect x="289" y="341" width="12" height="12" fill="#F59F00"/>
<text x="305" y="352" font-size="12" fill="#222">multi (cycles x depth)</text>
<rect x="509" y="341" width="12" height="12" fill="#2F9E44"/>
<text x="525" y="352" font-size="12" fill="#222">pipe (cycles x depth)</text>
</svg>